<svg xmlns="http://www.w3.org/2000/svg" viewBox="0 12.649999618530273 255.8300018310547 35.349998474121094" data-asc="0.9599609375"><g fill="#314063"><g fill="#314063" transform="translate(0, 0)"><path d="M12.43 13.28L18.85 13.28L31.27 48.00L25.78 48.00L22.00 37.55L12.30 37.55L14.16 32.42L20.14 32.42L15.65 20.02L5.49 48.00L0 48.00L12.43 13.28ZM34.94 31.84Q34.94 29.32 36.17 27.25Q37.40 25.17 39.48 23.94Q41.55 22.71 44.07 22.71L50.10 22.71L50.10 27.86L44.07 27.86Q42.43 27.86 41.26 29.04Q40.09 30.22 40.09 31.88L40.09 38.87Q40.09 40.50 41.26 41.67Q42.43 42.85 44.07 42.85L53.03 42.85L53.03 13.28L58.18 13.28L58.18 42.85Q58.18 44.97 56.67 46.48Q55.15 48.00 53.03 48.00L44.07 48.00Q41.55 48.00 39.48 46.77Q37.40 45.53 36.17 43.47Q34.94 41.41 34.94 38.92L34.94 31.84ZM63.45 15.82Q63.45 14.50 64.38 13.57Q65.31 12.65 66.63 12.65Q67.94 12.65 68.87 13.57Q69.80 14.50 69.80 15.82Q69.80 17.14 68.87 18.07Q67.94 18.99 66.63 18.99Q65.31 18.99 64.38 18.07Q63.45 17.14 63.45 15.82M64.04 22.71L69.21 22.71L69.21 48.00L64.04 48.00L64.04 22.71ZM74.83 13.28L79.98 13.28L79.98 42.85L88.94 42.85Q90.60 42.85 91.76 41.67Q92.92 40.50 92.92 38.87L92.92 31.88Q92.92 30.22 91.76 29.04Q90.60 27.86 88.94 27.86L82.91 27.86L82.91 22.71L88.94 22.71Q91.46 22.71 93.53 23.94Q95.61 25.17 96.84 27.25Q98.07 29.32 98.07 31.84L98.07 38.92Q98.07 41.41 96.84 43.47Q95.61 45.53 93.53 46.77Q91.46 48.00 88.94 48.00L79.98 48.00Q77.86 48.00 76.34 46.48Q74.83 44.97 74.83 42.85L74.83 13.28ZM119.07 13.28L123.78 13.28L134.99 26.98L146.19 13.28L150.90 13.28L150.90 48.00L145.75 48.00L145.75 22.05L137.13 32.50L132.86 32.50L124.22 22.05L124.22 48.00L119.07 48.00L119.07 13.28ZM157.01 31.79Q157.01 29.27 158.24 27.22Q159.47 25.17 161.55 23.94Q163.62 22.71 166.14 22.71L180.25 22.71L180.25 48.00L175.10 48.00L175.10 27.86L166.14 27.86Q164.50 27.86 163.33 29.02Q162.16 30.18 162.16 31.84L162.16 38.82Q162.16 40.48 163.33 41.66Q164.50 42.85 166.14 42.85L172.17 42.85L172.17 48.00L166.14 48.00Q163.62 48.00 161.55 46.77Q159.47 45.53 158.24 43.46Q157.01 41.38 157.01 38.87L157.01 31.79ZM186.11 29.79Q186.11 27.83 187.10 26.22Q188.09 24.61 189.73 23.66Q191.38 22.71 193.38 22.71L199.02 22.71L199.02 27.83L193.38 27.83Q192.50 27.83 191.88 28.43Q191.26 29.03 191.26 29.88L191.26 48.00L186.11 48.00L186.11 29.79ZM202.93 31.84Q202.93 29.32 204.16 27.25Q205.40 25.17 207.47 23.94Q209.55 22.71 212.06 22.71L217.58 22.71Q220.09 22.71 222.17 23.94Q224.24 25.17 225.48 27.25Q226.71 29.32 226.71 31.84L226.71 38.87Q226.71 41.38 225.48 43.46Q224.24 45.53 222.17 46.77Q220.09 48.00 217.58 48.00L212.06 48.00Q209.55 48.00 207.47 46.77Q205.40 45.53 204.16 43.46Q202.93 41.38 202.93 38.87L202.93 31.84M208.08 38.82Q208.08 40.48 209.25 41.66Q210.42 42.85 212.06 42.85L217.58 42.85Q219.24 42.85 220.40 41.66Q221.56 40.48 221.56 38.82L221.56 31.88Q221.56 30.22 220.40 29.04Q219.24 27.86 217.58 27.86L212.06 27.86Q210.42 27.86 209.25 29.04Q208.08 30.22 208.08 31.88L208.08 38.82ZM232.08 29.81Q232.08 27.83 233.07 26.22Q234.06 24.61 235.71 23.66Q237.35 22.71 239.36 22.71L254.20 22.71L254.20 27.86L239.36 27.86Q238.48 27.86 237.85 28.43Q237.23 29.00 237.23 29.81L237.23 30.42Q237.23 31.25 237.85 31.84Q238.48 32.42 239.36 32.42L248.58 32.42Q250.59 32.42 252.23 33.39Q253.88 34.35 254.86 35.96Q255.83 37.57 255.83 39.55L255.83 40.87Q255.83 42.82 254.86 44.45Q253.88 46.07 252.23 47.03Q250.59 48.00 248.58 48.00L233.23 48.00L233.23 42.85L248.58 42.85Q249.46 42.85 250.09 42.26Q250.71 41.67 250.71 40.84L250.71 39.58Q250.71 38.72 250.09 38.13Q249.46 37.55 248.58 37.55L239.36 37.55Q237.35 37.55 235.71 36.58Q234.06 35.62 233.07 34.00Q232.08 32.37 232.08 30.42L232.08 29.81Z"/></g></g></svg>